<svg xmlns="http://www.w3.org/2000/svg" viewBox="0 0 160 90" role="img" aria-label="Knowledge infographic"><defs><linearGradient id="g" x1="0" y1="0" x2="1" y2="1"><stop offset="0" stop-color="#5B7CD6"/><stop offset="1" stop-color="#33407e"/></linearGradient></defs><rect width="160" height="90" rx="12" fill="url(#g)"/><g fill="none" stroke="#fff" stroke-width="2.6" stroke-linecap="round" stroke-linejoin="round"><path d="M80 22 a15 15 0 0 1 9 27 c-2 2 -3 4 -3 7 h-12 c0 -3 -1 -5 -3 -7 a15 15 0 0 1 9 -27 Z"/><path d="M74 62 h12 M76 68 h8"/></g><g fill="#fff" opacity=".9"><rect x="44" y="60" width="7" height="14" rx="1.5"/><rect x="55" y="54" width="7" height="20" rx="1.5"/><rect x="99" y="56" width="7" height="18" rx="1.5"/><rect x="110" y="50" width="7" height="24" rx="1.5"/></g></svg>