<svg xmlns="http://www.w3.org/2000/svg" viewBox="0 0 160 90" role="img" aria-label="Plant tracked across time-series frames"><defs><linearGradient id="g" x1="0" y1="0" x2="1" y2="1"><stop offset="0" stop-color="#6E5BC4"/><stop offset="1" stop-color="#3B2F72"/></linearGradient></defs><rect width="160" height="90" rx="12" fill="url(#g)"/><g fill="none" stroke="#fff" stroke-width="2" opacity=".55"><rect x="22" y="20" width="34" height="50" rx="4"/><rect x="63" y="20" width="34" height="50" rx="4"/></g><rect x="104" y="20" width="34" height="50" rx="4" fill="none" stroke="#fff" stroke-width="2.4"/><g fill="none" stroke="#fff" stroke-linecap="round" stroke-width="2.4"><path d="M39 64 V48 M39 54 q-5 -3 -7 -8" opacity=".55"/><path d="M80 64 V42 M80 50 q-6 -4 -8 -10 M80 46 q6 -3 8 -8" opacity=".55"/><path d="M121 64 V34 M121 44 q-7 -4 -9 -11 M121 40 q7 -4 9 -10 M121 52 q6 -2 8 -7"/></g><circle cx="121" cy="34" r="3.2" fill="#FFD866"/></svg>
